<svg version="1.1" id="Layer_1" xmlns="http://www.w3.org/2000/svg" xmlns:xlink="http://www.w3.org/1999/xlink" x="0px" y="0px"
	 width="100%" viewBox="0 0 768 768" enable-background="new 0 0 768 768" xml:space="preserve">
<path fill="#EA4335" opacity="1.000000" stroke="none"
	d="
M70.117149,227.441849 
	C78.917412,212.620667 86.910027,197.236389 96.742020,183.134552 
	C106.846825,168.641434 118.266190,154.971878 130.029404,141.760269 
	C138.021820,132.783783 147.195908,124.720497 156.563446,117.140991 
	C169.503983,106.670486 182.668762,96.347816 196.558243,87.209236 
	C218.280304,72.917206 241.541122,61.251389 266.297302,53.192677 
	C284.207275,47.362568 302.482971,42.474689 320.855225,38.312931 
	C332.140900,35.756454 343.884155,34.711399 355.478607,34.143593 
	C373.709747,33.250763 392.048004,32.262272 410.232300,33.271652 
	C433.216217,34.547459 455.932709,38.497478 478.276337,44.541172 
	C503.759491,51.434063 528.041138,61.171265 551.182312,73.729332 
	C570.470825,84.196609 588.622498,96.417610 605.288025,110.768494 
	C610.612976,115.353889 616.013550,119.851456 621.637878,124.607704 
	C620.262329,126.104683 619.422119,127.089111 618.509888,128.001556 
	C586.820984,159.698792 555.072937,191.337219 523.509827,223.159134 
	C520.264038,226.431503 518.395569,225.732727 515.495789,223.073196 
	C490.002686,199.692078 460.160980,185.031860 426.329742,177.825836 
	C407.526672,173.820816 388.566345,172.985687 369.665161,174.248596 
	C346.952545,175.766174 325.007812,181.408585 304.094391,190.893723 
	C281.351013,201.208817 261.154724,214.939117 243.093079,232.241150 
	C217.903366,256.371460 200.222778,285.048645 188.064484,317.751282 
	C157.900345,294.823425 128.372635,271.850891 98.772018,248.972672 
	C89.319817,241.667099 79.674240,234.611710 70.117149,227.441849 
z"/>
<path fill="#34A853" opacity="1.000000" stroke="none" 
	d="
M618.076172,652.078247 
	C605.077454,662.378174 592.604431,673.442139 578.972778,682.822327 
	C548.617065,703.710632 515.018799,717.803589 479.204865,726.152649 
	C462.464478,730.055237 445.393890,733.299133 428.296478,734.724243 
	C406.013428,736.581543 383.499817,737.588318 361.189453,736.603943 
	C342.921509,735.797974 324.635193,732.363525 306.660583,728.631958 
	C275.777405,722.220520 246.575638,710.775452 218.763611,695.906616 
	C198.848877,685.259949 179.939087,673.031555 162.826111,658.243591 
	C151.940857,648.837219 140.933548,639.475708 130.910477,629.188477 
	C111.653336,609.423706 95.243782,587.357666 81.252419,563.549438 
	C77.342674,556.896484 73.812195,550.020569 70.471718,542.822021 
	C90.153740,527.454834 109.463493,512.501831 128.792145,497.573334 
	C148.532303,482.326965 168.291000,467.104553 188.041611,451.871704 
	C191.937286,461.032684 195.389069,470.415070 199.823761,479.307220 
	C208.285583,496.274292 219.000366,511.741486 231.470734,526.118347 
	C251.938995,549.715942 276.796661,567.161316 305.039490,579.912781 
	C320.617828,586.946350 336.949188,591.954285 353.999939,593.951111 
	C365.605225,595.310303 377.316315,597.096924 388.931000,596.796143 
	C424.341492,595.879272 458.335541,588.612183 489.592377,571.084106 
	C494.163757,568.520691 498.607178,565.729065 503.663910,563.302307 
	C506.047607,565.002136 507.869171,566.453064 509.707977,567.881836 
	C545.829468,595.948914 581.953003,624.013306 618.076172,652.078247 
z"/>
<path fill="#4285F4" opacity="1.000000" stroke="none" 
	d="
M618.385742,651.942993 
	C581.953003,624.013306 545.829468,595.948914 509.707977,567.881836 
	C507.869171,566.453064 506.047607,565.002136 504.012421,563.288818 
	C508.721130,558.995239 513.634583,554.973450 518.549927,550.953979 
	C531.893311,540.042725 542.941101,527.199219 552.170410,512.602844 
	C562.743042,495.882050 569.566223,477.820190 573.717224,458.056580 
	C510.814362,458.056580 448.155701,458.056580 385.249634,458.056580 
	C385.249634,412.302460 385.249634,367.031219 385.249634,321.379791 
	C495.556976,321.379791 605.949463,321.379791 717.072327,321.379791 
	C718.353760,329.585297 720.397949,338.012268 720.854492,346.524384 
	C721.962769,367.189941 722.994019,387.902161 722.774902,408.581970 
	C722.620544,423.143066 721.059021,437.788055 718.862549,452.203094 
	C716.271240,469.209534 713.199463,486.248047 708.693726,502.826294 
	C704.629944,517.778687 698.741028,532.285828 692.950928,546.705811 
	C685.234436,565.923645 675.122070,583.979126 662.937012,600.693298 
	C654.099243,612.816101 644.341858,624.291748 634.615723,635.733887 
	C629.745667,641.463135 624.029053,646.472717 618.385742,651.942993 
z"/>
<path fill="#FBBC05" opacity="1.000000" stroke="none" 
	d="
M188.022675,451.472351 
	C168.291000,467.104553 148.532303,482.326965 128.792145,497.573334 
	C109.463493,512.501831 90.153740,527.454834 70.485512,542.492432 
	C64.764626,530.328308 58.449585,518.382690 54.246738,505.735229 
	C48.096275,487.226807 42.842823,468.359253 38.409996,449.364014 
	C35.754990,437.987000 34.926765,426.106934 34.124462,414.394928 
	C33.242588,401.521332 33.208469,388.582855 33.030476,375.669525 
	C32.794735,358.565826 34.993328,341.704956 37.846329,324.851196 
	C41.017620,306.117249 45.362309,287.716156 52.068630,269.977325 
	C57.425465,255.808014 63.691143,241.982300 69.835281,227.722961 
	C79.674240,234.611710 89.319817,241.667099 98.772018,248.972672 
	C128.372635,271.850891 157.900345,294.823425 187.742432,317.945068 
	C185.566071,328.337952 182.843048,338.491699 180.734009,348.771484 
	C179.360672,355.465332 178.706253,362.325684 178.052231,369.142426 
	C177.470840,375.202209 176.891525,381.318481 177.082077,387.385620 
	C177.682144,406.491302 180.378250,425.306335 186.001175,443.639069 
	C186.753250,446.091156 187.340286,448.593811 188.022675,451.472351 
z"/>
</svg>