<svg version="1.1" id="Layer_1" xmlns="http://www.w3.org/2000/svg" xmlns:xlink="http://www.w3.org/1999/xlink" x="0px" y="0px"
	 width="100%" viewBox="0 0 600 600" enable-background="new 0 0 600 600" xml:space="preserve">
<path fill="#FFE812" opacity="1.000000" stroke="none" 
	d="
M1.000000,568.000000 
	C1.000000,390.308411 1.000000,212.616852 1.288831,34.792557 
	C1.959596,34.340931 2.564284,34.092796 2.691327,33.692909 
	C7.602858,18.233179 17.861109,8.100823 33.140575,2.874411 
	C33.588375,2.721240 33.720623,1.645557 34.000000,1.000000 
	C211.691574,1.000000 389.383148,1.000000 567.207275,1.288710 
	C567.659180,1.960086 567.907043,2.563272 568.308411,2.693590 
	C583.683777,7.685663 594.013428,17.740770 599.123779,33.135761 
	C599.271973,33.582264 600.353577,33.718895 601.000000,34.000008 
	C601.000000,211.691574 601.000000,389.383148 600.711182,567.207397 
	C600.039856,567.659607 599.436829,567.907471 599.306519,568.308838 
	C594.314636,583.684692 584.254272,594.009094 568.863770,599.123779 
	C568.417297,599.272095 568.280945,600.353577 568.000000,601.000000 
	C390.308411,601.000000 212.616852,601.000000 34.792343,600.713806 
	C34.343025,600.044922 34.098648,599.441406 33.699871,599.311340 
	C18.333776,594.299805 8.042215,584.196716 2.873343,568.853027 
	C2.723681,568.408752 1.645333,568.277283 1.000000,568.000000 
M89.455421,373.037628 
	C110.962425,402.390442 138.934723,423.938507 171.456711,440.423950 
	C168.099503,452.157745 164.778763,463.623199 161.541412,475.112152 
	C156.807587,491.911804 152.002106,508.693848 147.574738,525.574524 
	C146.904419,528.130310 147.152481,532.624634 148.686920,533.642334 
	C150.722107,534.992188 154.757767,534.588684 157.364059,533.532593 
	C161.788132,531.739807 165.921112,529.076538 169.908310,526.382263 
	C198.040802,507.372131 226.072220,488.212067 254.256851,469.279877 
	C256.364014,467.864441 259.518097,466.996521 262.005280,467.308929 
	C302.509583,472.396637 342.498993,469.848755 381.786652,458.847656 
	C432.075958,444.765961 475.563629,419.660461 508.548950,378.282684 
	C553.242493,322.217773 556.909546,249.699158 517.817505,189.870697 
	C492.762177,151.524826 457.482849,125.471718 415.682831,108.058876 
	C356.003906,83.198112 294.373688,79.044983 231.607254,93.417770 
	C183.916397,104.338432 141.511627,125.733742 107.145493,161.230438 
	C74.902306,194.534378 56.502106,233.960098 57.319252,281.004791 
	C57.906597,314.818939 69.377556,345.123810 89.455421,373.037628 
z"/>
<path fill="#010100" opacity="1.000000" stroke="none" 
	d="
M89.238190,372.751709 
	C69.377556,345.123810 57.906597,314.818939 57.319252,281.004791 
	C56.502106,233.960098 74.902306,194.534378 107.145493,161.230438 
	C141.511627,125.733742 183.916397,104.338432 231.607254,93.417770 
	C294.373688,79.044983 356.003906,83.198112 415.682831,108.058876 
	C457.482849,125.471718 492.762177,151.524826 517.817505,189.870697 
	C556.909546,249.699158 553.242493,322.217773 508.548950,378.282684 
	C475.563629,419.660461 432.075958,444.765961 381.786652,458.847656 
	C342.498993,469.848755 302.509583,472.396637 262.005280,467.308929 
	C259.518097,466.996521 256.364014,467.864441 254.256851,469.279877 
	C226.072220,488.212067 198.040802,507.372131 169.908310,526.382263 
	C165.921112,529.076538 161.788132,531.739807 157.364059,533.532593 
	C154.757767,534.588684 150.722107,534.992188 148.686920,533.642334 
	C147.152481,532.624634 146.904419,528.130310 147.574738,525.574524 
	C152.002106,508.693848 156.807587,491.911804 161.541412,475.112152 
	C164.778763,463.623199 168.099503,452.157745 171.456711,440.423950 
	C138.934723,423.938507 110.962425,402.390442 89.238190,372.751709 
M416.717865,307.592102 
	C416.520416,302.786255 416.000732,297.851166 421.829010,295.292572 
	C431.520264,308.122742 441.248230,321.001129 450.975525,333.880035 
	C451.778320,334.942902 452.566498,336.016968 453.378479,337.072723 
	C459.217499,344.664734 467.575836,346.322296 474.210938,341.208923 
	C480.886108,336.064667 481.541351,327.755066 475.725067,319.992157 
	C465.742615,306.668701 455.673218,293.410461 445.649353,280.118011 
	C444.574524,278.692688 443.559784,277.222107 442.646027,275.951660 
	C442.965851,275.366119 443.016815,275.191162 443.129700,275.077820 
	C453.001160,265.161499 462.898224,255.270508 472.745605,245.330338 
	C478.698151,239.321655 478.924622,231.941910 473.427185,226.362473 
	C467.633942,220.482742 460.446747,220.651306 454.152679,226.916977 
	C442.936310,238.082779 431.771301,249.300171 420.566376,260.477509 
	C419.594910,261.446625 418.486542,262.278503 416.705872,263.804993 
	C416.705872,253.698563 416.838562,244.583191 416.668640,235.473465 
	C416.497833,226.315292 410.471252,219.992065 402.389618,220.109482 
	C394.452362,220.224792 388.577423,226.352539 388.540741,235.324814 
	C388.412750,266.644501 388.415253,297.965332 388.542816,329.285065 
	C388.579803,338.360809 394.339935,344.307709 402.424591,344.372742 
	C410.667572,344.439026 416.484589,338.299774 416.684387,329.059296 
	C416.832001,322.231964 416.716248,315.398956 416.717865,307.592102 
M229.567764,237.058289 
	C219.103821,264.541870 208.604752,292.012238 198.220825,319.526001 
	C196.937714,322.925842 195.983093,326.508698 195.373581,330.091370 
	C194.131241,337.393768 197.102783,341.998657 203.764343,343.751953 
	C212.203583,345.973145 218.881226,343.487762 221.492737,337.024384 
	C223.422089,332.249329 225.077240,327.361084 227.099686,322.627991 
	C227.567062,321.534180 229.026001,320.129028 230.043976,320.116516 
	C243.648468,319.949554 257.255676,320.004883 270.856659,320.004883 
	C273.145660,326.018250 274.825043,331.840271 277.581635,337.097473 
	C279.035522,339.870331 282.021576,342.836426 284.912781,343.687622 
	C297.846313,347.495239 305.612579,340.074371 302.955994,326.971741 
	C302.529236,324.866791 301.849548,322.794006 301.095795,320.777771 
	C297.779449,311.906860 294.389648,303.063385 291.032745,294.207611 
	C283.612396,274.632172 276.193848,255.056015 268.778381,235.478714 
	C265.429047,226.636246 259.406433,220.885147 249.729294,220.183960 
	C241.790466,219.608688 234.123550,225.739090 230.312576,234.917892 
	C230.121841,235.377243 230.010971,235.869781 229.567764,237.058289 
M180.217422,259.523560 
	C180.217422,255.740158 180.217422,251.956741 180.217422,247.744339 
	C187.758118,247.744339 194.733948,247.927063 201.696213,247.697845 
	C210.284744,247.415070 216.193954,241.398697 215.995163,233.557709 
	C215.802414,225.954941 209.811325,220.317261 201.508591,220.103104 
	C196.512863,219.974274 191.511246,220.072876 186.512268,220.072769 
	C168.182648,220.072388 149.852585,219.996368 131.523605,220.104355 
	C121.321869,220.164444 114.891449,227.726044 116.879097,236.976730 
	C118.259796,243.402603 123.651985,247.555313 131.240417,247.721313 
	C138.026871,247.869781 144.819153,247.752533 152.099442,247.752533 
	C152.099442,249.958649 152.099457,251.743896 152.099457,253.529144 
	C152.099594,278.690704 152.082977,303.852295 152.109940,329.013824 
	C152.118164,336.701080 155.456284,341.856720 161.550873,343.854858 
	C171.009781,346.956055 180.101013,340.606720 180.162720,330.501007 
	C180.305176,307.173279 180.213882,283.844147 180.217422,259.523560 
M347.499817,342.675446 
	C355.326782,342.595825 363.183441,342.910156 370.972229,342.323700 
	C378.474365,341.758881 383.407501,335.754639 382.969391,328.923218 
	C382.543365,322.279938 377.157135,317.287872 369.944916,316.927002 
	C367.783630,316.818878 365.613708,316.872467 363.447723,316.871063 
	C355.669586,316.865967 347.891449,316.869049 339.763306,316.869049 
	C339.763306,314.460205 339.763336,312.651123 339.763306,310.842072 
	C339.763184,286.013672 339.790283,261.185211 339.749329,236.356857 
	C339.733307,226.640762 333.800659,220.074051 325.260071,220.113342 
	C316.693420,220.152756 310.989014,226.634964 310.982544,236.457901 
	C310.962585,266.785217 310.961609,297.112549 310.982849,327.439850 
	C310.989807,337.397247 315.949799,342.455627 326.004364,342.648163 
	C332.833832,342.778931 339.667847,342.674652 347.499817,342.675446 
z"/>
<path fill="#FBE412" opacity="1.000000" stroke="none" 
	d="
M416.717865,308.080292 
	C416.716248,315.398956 416.832001,322.231964 416.684387,329.059296 
	C416.484589,338.299774 410.667572,344.439026 402.424591,344.372742 
	C394.339935,344.307709 388.579803,338.360809 388.542816,329.285065 
	C388.415253,297.965332 388.412750,266.644501 388.540741,235.324814 
	C388.577423,226.352539 394.452362,220.224792 402.389618,220.109482 
	C410.471252,219.992065 416.497833,226.315292 416.668640,235.473465 
	C416.838562,244.583191 416.705872,253.698563 416.705872,263.804993 
	C418.486542,262.278503 419.594910,261.446625 420.566376,260.477509 
	C431.771301,249.300171 442.936310,238.082779 454.152679,226.916977 
	C460.446747,220.651306 467.633942,220.482742 473.427185,226.362473 
	C478.924622,231.941910 478.698151,239.321655 472.745605,245.330338 
	C462.898224,255.270508 453.001160,265.161499 443.129700,275.077820 
	C443.016815,275.191162 442.965851,275.366119 442.646027,275.951660 
	C443.559784,277.222107 444.574524,278.692688 445.649353,280.118011 
	C455.673218,293.410461 465.742615,306.668701 475.725067,319.992157 
	C481.541351,327.755066 480.886108,336.064667 474.210938,341.208923 
	C467.575836,346.322296 459.217499,344.664734 453.378479,337.072723 
	C452.566498,336.016968 451.778320,334.942902 450.975525,333.880035 
	C441.248230,321.001129 431.520264,308.122742 421.829010,295.292572 
	C416.000732,297.851166 416.520416,302.786255 416.717865,308.080292 
z"/>
<path fill="#FDE612" opacity="1.000000" stroke="none" 
	d="
M229.715332,236.702576 
	C230.010971,235.869781 230.121841,235.377243 230.312576,234.917892 
	C234.123550,225.739090 241.790466,219.608688 249.729294,220.183960 
	C259.406433,220.885147 265.429047,226.636246 268.778381,235.478714 
	C276.193848,255.056015 283.612396,274.632172 291.032745,294.207611 
	C294.389648,303.063385 297.779449,311.906860 301.095795,320.777771 
	C301.849548,322.794006 302.529236,324.866791 302.955994,326.971741 
	C305.612579,340.074371 297.846313,347.495239 284.912781,343.687622 
	C282.021576,342.836426 279.035522,339.870331 277.581635,337.097473 
	C274.825043,331.840271 273.145660,326.018250 270.856659,320.004883 
	C257.255676,320.004883 243.648468,319.949554 230.043976,320.116516 
	C229.026001,320.129028 227.567062,321.534180 227.099686,322.627991 
	C225.077240,327.361084 223.422089,332.249329 221.492737,337.024384 
	C218.881226,343.487762 212.203583,345.973145 203.764343,343.751953 
	C197.102783,341.998657 194.131241,337.393768 195.373581,330.091370 
	C195.983093,326.508698 196.937714,322.925842 198.220825,319.526001 
	C208.604752,292.012238 219.103821,264.541870 229.715332,236.702576 
M247.924088,259.584473 
	C243.820480,271.250183 239.716873,282.915863 235.562439,294.726074 
	C245.156723,294.726074 254.022705,294.726074 263.345154,294.726074 
	C260.918915,287.863525 258.655701,281.461395 256.392029,275.059509 
	C254.193054,268.840668 251.993561,262.622040 249.524261,255.639709 
	C248.770813,257.346527 248.437164,258.102386 247.924088,259.584473 
z"/>
<path fill="#FCE612" opacity="1.000000" stroke="none" 
	d="
M180.217422,260.019562 
	C180.213882,283.844147 180.305176,307.173279 180.162720,330.501007 
	C180.101013,340.606720 171.009781,346.956055 161.550873,343.854858 
	C155.456284,341.856720 152.118164,336.701080 152.109940,329.013824 
	C152.082977,303.852295 152.099594,278.690704 152.099457,253.529144 
	C152.099457,251.743896 152.099442,249.958649 152.099442,247.752533 
	C144.819153,247.752533 138.026871,247.869781 131.240417,247.721313 
	C123.651985,247.555313 118.259796,243.402603 116.879097,236.976730 
	C114.891449,227.726044 121.321869,220.164444 131.523605,220.104355 
	C149.852585,219.996368 168.182648,220.072388 186.512268,220.072769 
	C191.511246,220.072876 196.512863,219.974274 201.508591,220.103104 
	C209.811325,220.317261 215.802414,225.954941 215.995163,233.557709 
	C216.193954,241.398697 210.284744,247.415070 201.696213,247.697845 
	C194.733948,247.927063 187.758118,247.744339 180.217422,247.744339 
	C180.217422,251.956741 180.217422,255.740158 180.217422,260.019562 
z"/>
<path fill="#FCE512" opacity="1.000000" stroke="none" 
	d="
M346.999817,342.675476 
	C339.667847,342.674652 332.833832,342.778931 326.004364,342.648163 
	C315.949799,342.455627 310.989807,337.397247 310.982849,327.439850 
	C310.961609,297.112549 310.962585,266.785217 310.982544,236.457901 
	C310.989014,226.634964 316.693420,220.152756 325.260071,220.113342 
	C333.800659,220.074051 339.733307,226.640762 339.749329,236.356857 
	C339.790283,261.185211 339.763184,286.013672 339.763306,310.842072 
	C339.763336,312.651123 339.763306,314.460205 339.763306,316.869049 
	C347.891449,316.869049 355.669586,316.865967 363.447723,316.871063 
	C365.613708,316.872467 367.783630,316.818878 369.944916,316.927002 
	C377.157135,317.287872 382.543365,322.279938 382.969391,328.923218 
	C383.407501,335.754639 378.474365,341.758881 370.972229,342.323700 
	C363.183441,342.910156 355.326782,342.595825 346.999817,342.675476 
z"/>
<path fill="#050400" opacity="1.000000" stroke="none" 
	d="
M248.013794,259.221344 
	C248.437164,258.102386 248.770813,257.346527 249.524261,255.639709 
	C251.993561,262.622040 254.193054,268.840668 256.392029,275.059509 
	C258.655701,281.461395 260.918915,287.863525 263.345154,294.726074 
	C254.022705,294.726074 245.156723,294.726074 235.562439,294.726074 
	C239.716873,282.915863 243.820480,271.250183 248.013794,259.221344 
z"/>
</svg>