<svg
  version="1.1"
  id="Layer_1"
  xmlns="http://www.w3.org/2000/svg"
  x="0px"
  y="0px"
  width="100%"
  viewBox="0 0 200 200"
  xml:space="preserve"
><path     fill="none"
    stroke="none"
	d="
M201.000000,12.000003
	C201.000000,71.020897 201.000000,130.041794 200.716095,189.225647
	C198.247879,191.799210 196.057877,194.204636 193.881424,196.622284
	C192.576645,198.071640 191.293091,199.540115 190.000000,201.000000
	C130.979111,201.000000 71.958206,201.000000 12.774355,200.716080
	C10.200815,198.247864 7.795382,196.057861 5.377728,193.881424
	C3.928358,192.576660 2.459887,191.293091 1.000001,190.000000
	C1.000000,130.979111 1.000000,71.958206 1.283926,12.774357
	C3.752145,10.200808 5.942147,7.795357 8.118587,5.377696
	C9.423346,3.928326 10.706909,2.459875 12.000000,1.000000
	C71.020897,1.000000 130.041794,1.000000 189.225662,1.283929
	C191.799225,3.752150 194.204666,5.942147 196.622314,8.118594
	C198.071671,9.423361 199.540115,10.706918 201.000000,12.000003
M5.999527,81.500000
	C5.999671,114.323341 5.984876,147.146698 6.009036,179.970032
	C6.016309,189.850159 12.023402,195.982407 21.768274,195.987320
	C74.585457,196.013962 127.402664,196.013763 180.219849,195.987488
	C189.967712,195.982635 195.987289,189.852921 195.990921,179.981903
	C196.010284,127.331329 196.010452,74.680748 195.990906,22.030180
	C195.987167,11.973167 189.920761,6.009345 179.732086,6.006550
	C127.248131,5.992154 74.764175,5.992011 22.280216,6.006563
	C11.899325,6.009442 6.013267,11.999492 6.004405,22.517725
	C5.988124,41.845135 5.999613,61.172573 5.999527,81.500000
z"/>
<path fill="#FEFFFF" opacity="1.000000" stroke="none"
	d="
M5.999527,81.000000
	C5.999613,61.172573 5.988124,41.845135 6.004405,22.517725
	C6.013267,11.999492 11.899325,6.009442 22.280216,6.006563
	C74.764175,5.992011 127.248131,5.992154 179.732086,6.006550
	C189.920761,6.009345 195.987167,11.973167 195.990906,22.030180
	C196.010452,74.680748 196.010284,127.331329 195.990921,179.981903
	C195.987289,189.852921 189.967712,195.982635 180.219849,195.987488
	C127.402664,196.013763 74.585457,196.013962 21.768274,195.987320
	C12.023402,195.982407 6.016309,189.850159 6.009036,179.970032
	C5.984876,147.146698 5.999671,114.323341 5.999527,81.000000
M91.202728,69.270813
	C90.160774,67.765564 89.247963,66.145584 88.041008,64.786919
	C86.803101,63.393414 85.325829,61.244724 83.869698,61.175083
	C76.275459,60.811886 68.654579,61.005692 61.086552,61.005692
	C61.086552,87.960838 61.086552,114.337784 61.086552,140.754471
	C69.696465,140.754471 77.954346,140.754471 86.913048,140.754471
	C86.913048,127.057327 86.913048,113.592224 86.913048,100.127121
	C96.717339,112.645378 105.542542,125.327095 114.464470,137.940399
	C115.335716,139.172104 116.773750,140.809799 117.998276,140.852997
	C125.606537,141.121277 133.228958,140.988083 140.941589,140.988083
	C140.941589,114.109154 140.941589,87.732254 140.941589,61.393166
	C132.262054,61.393166 123.891144,61.393166 115.004852,61.393166
	C115.004852,75.128296 115.004852,88.472054 115.004852,103.273582
	C106.640694,91.306580 99.140350,80.575478 91.202728,69.270813
z"/>
<path fill="#05C75B" opacity="1.000000" stroke="none"
	d="
M91.421371,69.557594
	C99.140350,80.575478 106.640694,91.306580 115.004852,103.273582
	C115.004852,88.472054 115.004852,75.128296 115.004852,61.393166
	C123.891144,61.393166 132.262054,61.393166 140.941589,61.393166
	C140.941589,87.732254 140.941589,114.109154 140.941589,140.988083
	C133.228958,140.988083 125.606537,141.121277 117.998276,140.852997
	C116.773750,140.809799 115.335716,139.172104 114.464470,137.940399
	C105.542542,125.327095 96.717339,112.645378 86.913048,100.127121
	C86.913048,113.592224 86.913048,127.057327 86.913048,140.754471
	C77.954346,140.754471 69.696465,140.754471 61.086552,140.754471
	C61.086552,114.337784 61.086552,87.960838 61.086552,61.005692
	C68.654579,61.005692 76.275459,60.811886 83.869698,61.175083
	C85.325829,61.244724 86.803101,63.393414 88.041008,64.786919
	C89.247963,66.145584 90.160774,67.765564 91.421371,69.557594
z"/>
</svg>